<svg xmlns="http://www.w3.org/2000/svg" xmlns:xlink="http://www.w3.org/1999/xlink" version="1.1" style="enable-background:new 0 0 438.483 438.483;" xml:space="preserve" width="438.483" height="438.483"><rect id="backgroundrect" width="100%" height="100%" x="0" y="0" fill="none" stroke="none"/>
















<g class="currentLayer" style=""><title>Layer 1</title><g id="svg_1" class="selected" fill-opacity="1" fill="#ff942c" stroke-opacity="1" stroke="#ff942c">
	<g id="svg_2" fill="#ff942c" stroke="#ff942c">
		<path d="M431.168,230.762c-23.552-75.776-98.304-127.488-187.904-129.024V13.162c0-4.096-3.584-7.68-7.68-7.68    c-1.536,0-3.072,0.512-4.608,1.536L3.136,171.882c-3.584,2.56-4.096,7.168-1.536,10.752c0.512,0.512,1.024,1.024,1.536,1.536    l227.84,163.84c3.584,2.56,8.192,1.536,10.752-1.536c1.024-1.536,1.536-3.072,1.536-4.608v-88.064    c55.296,0,101.888,26.112,118.272,65.536c13.824,33.792,2.56,70.144-30.208,100.352c-3.072,3.072-3.584,7.68-0.512,10.752    c1.536,1.536,3.584,2.56,5.632,2.56h6.144c1.536,0,3.072-0.512,4.096-1.536C421.952,381.802,454.208,304.49,431.168,230.762z" id="svg_3" fill="#ff942c" stroke="#ff942c"/>
	</g>
</g><g id="svg_4">
</g><g id="svg_5">
</g><g id="svg_6">
</g><g id="svg_7">
</g><g id="svg_8">
</g><g id="svg_9">
</g><g id="svg_10">
</g><g id="svg_11">
</g><g id="svg_12">
</g><g id="svg_13">
</g><g id="svg_14">
</g><g id="svg_15">
</g><g id="svg_16">
</g><g id="svg_17">
</g><g id="svg_18">
</g></g></svg>