<svg xmlns="http://www.w3.org/2000/svg" xmlns:xlink="http://www.w3.org/1999/xlink" version="1.1" style="enable-background:new 0 0 365.744 365.744;" xml:space="preserve" width="365.744" height="365.744"><rect id="backgroundrect" width="100%" height="100%" x="0" y="0" fill="none" stroke="none"/>
















<g class="currentLayer" style=""><title>Layer 1</title><g id="svg_1" class="selected" stroke-opacity="1" stroke="#ff942c" fill-opacity="1" fill="#ff942c">
	<g id="svg_2" stroke="#ff942c" fill="#ff942c">
		<g id="svg_3" stroke="#ff942c" fill="#ff942c">
			<path d="M87.52159844303131,339.074 c1.6400000000000001,15.621 15.131,27.282 30.825,26.645 H250.0025984430313 c15.981,0.6360000000000001 29.705,-11.258 31.347,-27.167 l21.42,-223.608 H61.39859844303131 L87.52159844303131,339.074 z" id="svg_4" stroke="#ff942c" fill="#ff942c"/>
			<path d="M341.95459844303133,47.026 h-97.176 V30.307 c0.5800000000000001,-16.148 -12.041,-29.708 -28.188,-30.288 c-0.53,-0.019000000000000003 -1.061,-0.024000000000000004 -1.5910000000000002,-0.014000000000000002 h-65.829 c-16.156,-0.29900000000000004 -29.494,12.555 -29.793,28.711 c-0.010000000000000002,0.53 -0.005000000000000001,1.061 0.014000000000000002,1.5910000000000002 v16.718 H22.21559844303131 c-5.771,0 -10.449,4.678 -10.449,10.449 s4.678,10.449 10.449,10.449 h319.739 c5.771,0 10.449,-4.678 10.449,-10.449 S347.7245984430313,47.026 341.95459844303133,47.026 zM223.88059844303132,30.307 v16.718 h-83.592 V30.307 c-0.5890000000000001,-4.579 2.646,-8.768 7.225,-9.357 c0.549,-0.07100000000000001 1.104,-0.08600000000000002 1.6560000000000001,-0.04700000000000001 h65.829 c4.605,-0.32600000000000007 8.603,3.143 8.929,7.748 C223.9675984430313,29.203 223.95159844303132,29.758 223.88059844303132,30.307 z" id="svg_5" stroke="#ff942c" fill="#ff942c"/>
		</g>
	</g>
</g><g id="svg_6">
</g><g id="svg_7">
</g><g id="svg_8">
</g><g id="svg_9">
</g><g id="svg_10">
</g><g id="svg_11">
</g><g id="svg_12">
</g><g id="svg_13">
</g><g id="svg_14">
</g><g id="svg_15">
</g><g id="svg_16">
</g><g id="svg_17">
</g><g id="svg_18">
</g><g id="svg_19">
</g><g id="svg_20">
</g></g></svg>