<svg xmlns="http://www.w3.org/2000/svg" xmlns:xlink="http://www.w3.org/1999/xlink" version="1.1" style="enable-background:new 0 0 417.121 417.121;" xml:space="preserve" width="417.1210021972656" height="417.1210021972656"><rect id="backgroundrect" width="100%" height="100%" x="0" y="0" fill="none" stroke="none"/>
















<g class="currentLayer" style=""><title>Layer 1</title><g id="svg_1" class="selected" fill-opacity="1" fill="#ff942c" opacity="1">
	<g id="svg_2" fill="#ff942c" opacity="1">
		<g id="svg_3" fill="#ff942c" opacity="1">
			<g id="XMLID_22_" fill="#ff942c" opacity="1">
				<g id="svg_4" fill="#ff942c" opacity="1">
					<path style="" d="M176.83141907235853,-0.7874015569686891 c46.7594039607048,0 84.66999658465384,37.60582167506218 84.66999658465384,84.00158157348633 c0,46.4057032674551 -37.91059262394905,109.86428442299365 -84.66999658465384,109.86428442299365 s-84.66999658465384,-63.45858115553856 -84.66999658465384,-109.86428442299365 C92.16142248770467,36.81842011809349 130.0720151116537,-0.7874015569686891 176.83141907235853,-0.7874015569686891 z" id="svg_5" fill="#ff942c" opacity="1"/>
				</g>
			</g>
		</g>
		<path style="" d="M385.8247096124577,286.85238909661774 l-59.686885981559755,59.22270594835282 l-21.96669813156128,-21.80580828487873 l63.565130587816235,-63.07078976333141 C375.4626813879894,268.85489115059374 381.48548502716295,277.5652824217081 385.8247096124577,286.85238909661774 z" id="svg_6" fill="#ff942c" opacity="1"/>
		<path style="" d="M341.89131334933506,243.26065926492214 c9.35989783525467,4.305478790402413 18.128538740873335,10.281443578004836 25.844942737817764,17.937837731838226 l-63.565130587816235,63.07078976333141 l-21.96669813156128,-21.79586491584778 L341.89131334933506,243.26065926492214 z" id="svg_7" fill="#ff942c" opacity="1"/>
		<polygon style="" points="326.1378187376831,346.0750947481609 293.82914477586746,356.5056791513087 261.019405619445,367.09536110032224 271.69208814805097,334.5407806033052 282.20442614447165,302.47341547848356 304.1711377323736,324.26926340126903 " id="svg_8" fill="#ff942c" opacity="1"/>
		<path style="" d="M385.8247096124577,286.85238909661774 c15.44282929778099,33.091532135009764 9.410004354715348,73.62070430517197 -18.088453525304796,100.9053089261055 c-35.2248831808567,34.950942143797874 -92.32627275824547,34.950942143797874 -127.55115593910217,0 c-35.21486187696457,-34.950942143797874 -35.21486187696457,-91.60825888216495 0,-126.55920102596284 c27.508479183912275,-27.294547989964485 68.35531384825705,-33.270512777566914 101.7062132012844,-17.937837731838226 l-59.686885981559755,59.21276257932186 l-21.1850364279747,64.62195533215998 l65.11843269109727,-21.020282131433486 L385.8247096124577,286.85238909661774 z" id="svg_9" fill="#ff942c" opacity="1"/>
		<path style="" d="M293.82913988265267,356.5056891584396 l-32.809748942852025,10.589688017964363 l10.672688645124436,-32.554590207338336 C282.1543208483147,337.91158907055853 290.4319178632187,346.1248118901253 293.82913988265267,356.5056891584396 z" id="svg_10" fill="#ff942c" opacity="1"/>
	</g>
	<path style="" d="M199.73911763939134,324.47809750974176 c0,21.567167428135875 6.684209696054459,41.61299939453602 18.128538740873335,58.20848230719566 c-13.308291568756102,2.406295305490494 -27.027456597089767,3.6591598033905033 -41.037239438295366,3.6591598033905033 c-58.91524558186531,0 -112.6194131398201,-22.17371293902397 -153.0754169523716,-58.5763869613409 v-0.1292637974023819 c0,-60.54517402946949 35.70590576767922,-112.80752165615559 87.35570602774621,-137.19860588908193 c19.4112656390667,19.210588967800142 42.13958286643028,29.561636129021647 65.71971092462539,29.561636129021647 c23.59014936208725,0 46.308445285558705,-10.351047161221505 65.72973222851753,-29.561636129021647 c16.795705323219302,7.934808486700058 31.907831592559813,18.812854206562044 44.63488753557205,31.96793143451214 C237.66975287112467,230.3839963698387 199.73911763939134,273.1205964648724 199.73911763939134,324.47809750974176 z" id="svg_11" fill="#ff942c" opacity="1"/>
</g><g id="svg_12">
</g><g id="svg_13">
</g><g id="svg_14">
</g><g id="svg_15">
</g><g id="svg_16">
</g><g id="svg_17">
</g><g id="svg_18">
</g><g id="svg_19">
</g><g id="svg_20">
</g><g id="svg_21">
</g><g id="svg_22">
</g><g id="svg_23">
</g><g id="svg_24">
</g><g id="svg_25">
</g><g id="svg_26">
</g><path fill="#ff942c" fill-opacity="1" stroke="#000000" stroke-opacity="1" stroke-width="1" stroke-dasharray="none" stroke-linejoin="miter" stroke-linecap="butt" stroke-dashoffset="" fill-rule="nonzero" opacity="1" marker-start="" marker-mid="" marker-end="" d="M340.84396273461226,244.17521926061704L278.63923739094224,302.4429366711434" id="svg_27"/><path fill="#ff942c" fill-opacity="1" stroke="#000000" stroke-opacity="1" stroke-width="1" stroke-dasharray="none" stroke-linejoin="miter" stroke-linecap="butt" stroke-dashoffset="" fill-rule="nonzero" opacity="1" marker-start="" marker-mid="" marker-end="" d="M278.63923739094224,302.4429366711434L325.8833325886663,343.38781917583765" id="svg_29"/><path fill="#ff942c" fill-opacity="1" stroke="#000000" stroke-opacity="1" stroke-width="1" stroke-dasharray="none" stroke-linejoin="miter" stroke-linecap="butt" stroke-dashoffset="" fill-rule="nonzero" opacity="1" marker-start="" marker-mid="" marker-end="" d="M325.8833325886663,343.38781917583765L384.1510499991927,287.48230652519743" id="svg_31"/><path fill="#ff942c" fill-opacity="1" stroke="#000000" stroke-opacity="1" stroke-width="1" stroke-dasharray="none" stroke-linejoin="miter" stroke-linecap="butt" stroke-dashoffset="" fill-rule="nonzero" opacity="1" marker-start="" marker-mid="" marker-end="" d="M367.6156166799893,262.28545575307794L304.62348974969046,324.49018109674796" id="svg_33"/><path fill="#ff942c" fill-opacity="1" stroke="#000000" stroke-opacity="1" stroke-width="1" stroke-dasharray="none" stroke-linejoin="miter" stroke-linecap="butt" stroke-dashoffset="" fill-rule="nonzero" opacity="1" marker-start="" marker-mid="" marker-end="" d="M277.0644342176848,303.23033825777213L258.1667961385951,367.0098667746997" id="svg_35"/><path fill="#ff942c" fill-opacity="1" stroke="#000000" stroke-opacity="1" stroke-width="1" stroke-dasharray="none" stroke-linejoin="miter" stroke-linecap="butt" stroke-dashoffset="" fill-rule="nonzero" opacity="1" marker-start="" marker-mid="" marker-end="" d="M326.6707341752951,344.1752207624664L258.1667961385951,367.7972683613284" id="svg_28"/></g></svg>