<svg xmlns="http://www.w3.org/2000/svg" height="512" width="512" style=""><rect id="backgroundrect" width="100%" height="100%" x="0" y="0" fill="none" stroke="none"/><g class="currentLayer" style=""><title>Layer 1</title><g id="Flat" class="selected" fill-opacity="1" fill="#ff942c"><path d="m239.029 384.97a24 24 0 0 0 33.942 0l90.509-90.509a24 24 0 0 0 0-33.941 24 24 0 0 0 -33.941 0l-49.539 49.539v-262.059a24 24 0 0 0 -48 0v262.059l-49.539-49.539a24 24 0 0 0 -33.941 0 24 24 0 0 0 0 33.941z" fill="#ff942c" id="svg_1"/><path d="m464 232a24 24 0 0 0 -24 24v184h-368v-184a24 24 0 0 0 -48 0v192a40 40 0 0 0 40 40h384a40 40 0 0 0 40-40v-192a24 24 0 0 0 -24-24z" fill="#ff942c" id="svg_2"/></g></g></svg>